<?xml version="1.0" encoding="utf-8"?>
<!-- Generator: Adobe Illustrator 21.0.0, SVG Export Plug-In . SVG Version: 6.00 Build 0)  -->
<svg version="1.1" id="Layer_1" xmlns="http://www.w3.org/2000/svg" xmlns:xlink="http://www.w3.org/1999/xlink" x="0px" y="0px"
	 width="800px" height="256px" viewBox="0 0 800 256" enable-background="new 0 0 800 256" xml:space="preserve">
<path fill="#E0E0E0" d="M0,0.8h800V256H0V0.8z"/>
<path fill="#7A7A7A" d="M18.1,203.3c18.5,0,35.5-3,39.3-5.5c3.9-2.5,12.3,0.5,22.4,4c10,3.5,21.6-1.5,24.7-1.5
	c3.1,0,33.9-6.5,52.5-6.5s40.9-2.5,51.7-9.1c10.8-6.5,34.7-9.1,54.8-15.1c20.1-6,47.8-17.1,74.8-12.6c27,4.5,115.7,7.6,130.4,7.6
	c14.7,0,23.9,6,34.7,12.1c10.8,6,29.3,7.1,52.5,7.6c23.1,0.5,94.9,3.5,115.7,3c20.8-0.5,17.7,3,71.7,3c17.7,0,37.5-0.4,56.8-1.2
	v-57.5c-9.7-8.3-23.7-20.2-26-21.8c-3.5-2.4-16.6-7.7-21-7.3c-4.4,0.4-14.5-12.1-18.8-17c-4.4-4.9-8.8-10.1-13.6-10.1
	c-4.8,0-18-12.1-18-12.1S671.9,38,657.5,45.3c-14.5,7.3-24.1,23.9-39.4,23.9c-15.3,0-21.9-0.8-23.7,0c-1.8,0.8,1.8-2-2.6,1.6
	c-4.4,3.6-46,23.1-57.8,28.3c-11.8,5.3-20.6,2-29.8,8.1c-9.2,6.1-8.8,10.5-12.3,12.6c-3.5,2-32,4.5-46.4,4.5
	c-14.5,0-12.7-0.4-18.4-4.9c-5.7-4.5-14-16.2-23.7-14.2c-9.6,2-20.2,22.7-35.5,26.3c-15.3,3.6-21,8.5-48.6,12.1
	c-27.6,3.6-66.1,3.2-66.1,3.2s-34.6-17-38.1-19c-3.5-2-49-28.5-56-25.2c-7,3.2-4.8,5.7-11.9,3.2c-7-2.4-11.9-5.3-11.9-5.3L91,88.9
	c0,0-3.1-8.9-9.2-6.9c-6.1,2-12.3,7.3-19.8,13s-8.8,12.2-26.8,18.7c-10.7,3.9-25.2,6.6-35.2,8.2v81.3
	C4.7,203.2,10.8,203.3,18.1,203.3z"/>
<path fill="#606060" d="M785.8,206.9c-52.9-6.8-69.5,0.4-127.4,2.2c-57.9,1.8-145.5-0.1-181.5-0.4c-36.1-0.3-58.1-7.7-97.9-1.6
	c-39.8,6.1-68.1,7.8-78.4,7.5c-10.3-0.3-19.3-1.2-37.4-0.8c-18,0.4-14.2-1.8-29.6,0.6c-15.4,2.4-16.7-0.2-33.4,3.4
	c-16.7,3.5-21.8,5.2-37.3,3.4c-15.5-1.8-42.5-0.2-78.5,0.6c-36,0.8-64.3,0.8-64.3,0.8L0,227.5v15.7V256h800v-12.9v-34.6
	C795.1,208,790.3,207.5,785.8,206.9z"/>
<path fill-rule="evenodd" clip-rule="evenodd" fill="#FFFFFF" d="M525.7,23.6c0,0-6.7,4.9-9.6,6.3c-2.9,1.4-7.5,1.7-7.3,2.6
	c0.2,0.9,1.1,1.4,1.7,1.5c0.7,0.1,1.9-0.4,2.3,0c0.4,0.4,0.5,1,0.4,1.7c-0.1,0.8-0.5,0.8-0.4,1.6c0.1,0.9,1.5,0.7,2.6,0
	s4.4-4.6,5.3-4.6c1,0,3.4-1.4,5.3,0.7c2,2.1,3.2,4.9,3.8,6.5c0.7,1.6,1,3.2,1.3,4.4c0.3,1.2,0.3,4.6,0.3,4.6l1-3.9
	c0,0,1.4,2.9,1.4,3.4c0,0.4,1.1-3.9,1.1-3.9s1.2,3.4,1.2,4.8s0,1.4,0,1.4l1-5.1l1.4,3.3c0,0,0.5-1.5,0.9-5.7
	c0.3-4.1-0.4-9.1-0.9-11.3c-0.4-2.3-0.7-2.7-0.7-2.7s2.4,0,3.4-0.1c1-0.1,0.1-0.4-1.6-1.5c-1.7-1.1-3.3-3.3-6.3-2.8
	c-3.1,0.4-5.7,0.7-6.2-0.1C526.7,23.8,527.4,22.9,525.7,23.6z"/>
<path fill-rule="evenodd" clip-rule="evenodd" fill="#FFFFFF" d="M465.4,77.3c0,0-3.8,3.4-4.8,7.5c-1,4-2,7.2-3.3,6.9
	c-1.3-0.4-4.5-3.4-7.7-3.4c-3.2,0-7.1,1-7.1,1s-0.9,2,2.7,4.3c3.6,2.3,6.1,2.5,8.2,2.6c2.1,0.1,4.3,1.1,4.3,2.5
	c0,1.3-0.3,3.2,1.2,4.5c1.5,1.3,2,1.7,1.9,3.3c-0.1,1.6-0.7,3.7-0.7,3.7s2-1.6,2-2.7c0-1.1,2.3-0.8,2.3,2.5c0,3.2,0,4,0,4
	s2-3.2,1.6-3.9c-0.5-0.8,1.6,3.5,1.5,4.7c-0.1,1.1-0.2,1.9-0.2,1.9s2.9-2.4,2.5-4.1c-0.4-1.7,2.3,0.7,2.3,3c0,2.3-0.3,3.1,0,2.3
	c0.3-0.8,1.1-1.3,1.2-5.6c0.2-4.3-0.8-7.9-1.6-9.3c-0.8-1.4-0.1-2.9,1.4-1.9c1.5,1,5.4,3.5,6.1,3.2c0.7-0.3-0.7-5.2-3.3-6.9
	c-2.6-1.7-3.8-4.4-2.5-6.8c1.3-2.4,3.2-1.7,4.1-9.2c0.9-7.5,2-10,2-11.5c0-1.4,0-4.5,0-4.5s-1.7,1.9-1.7,3.5c0,1.6,0,1.6,0,1.6
	l-1.6-7.2c0,0-1.7,2.9-1.6,4.8c0.1,1.9,0.2,2,0.2,2l-1.4-7c0,0-1.8,2.4-1.9,4.1c-0.1,1.7-1.1-2.9-1.1-2.9s-2.1,2.1-2.3,4
	c-0.2,1.9-2-0.4-2-0.4s-1.1,1.2-1.1,3.5C465,73.5,465.4,76.9,465.4,77.3z"/>
<path fill-rule="evenodd" clip-rule="evenodd" fill="#FFFFFF" d="M617.6,69.4c-1.7,1.6-4.5,0.7-6.5,0.7s-4.3-1.5-5.1,0.5
	c-0.8,2.1-1.7,2.2-1.7,2.2s3.4,1.4,4.1,2.4c0.7,1,1.6,0.3,3.1-0.4c1.5-0.6,4.6-1.8,5.1-1.8c0.5,0,1.8,0.6,1.9,3.7
	c0.1,3.1-0.3,7.2-0.3,7.2s7.1,0.3,8.5-4.7s0.2-4.9,1.3-5.9c1.1-1.1,5.3-0.6,6-2.2c0.7-1.6,0.7-1.9-2.1-2.6s-4.8-0.3-4.8-2.6
	c0-2.3,2.2-3.1,1.6-8.1s-3.6-9.1-3.6-11.2c0-2.2,0-3.7,0-3.7s-0.5-0.2-0.9,1.8c-0.5,2-0.5,2-0.5,2l-0.4-3.8c0,0-0.6,1.3-0.8,3
	c-0.2,1.7-1-1.7-1-1.7s-1.4,2.4-1.4,4.4c0.1,2,0.2,2.8,0.1,2c-0.2-0.8-1.2-2.1-1.2-3.9c0-1.8,0-1.8,0-1.8s-2,2-1.4,4.4
	c0.6,2.3-1.4,0.5-1.5-0.1c-0.1-0.5-0.8,0.8,0.2,2.5c1,1.7,2.3,4.7,1.8,5.5c-0.5,0.8-2.5,3.8-1.4,6.9
	C618.1,67.1,618.3,68.8,617.6,69.4z"/>
<path fill-rule="evenodd" clip-rule="evenodd" fill="#FFFFFF" d="M658.6,41.2c-2.8,0.8-5.4-1.5-7.6-2.6c-2.2-1-4-3.9-6-2.1
	c-2,1.9-3.1,1.6-3.1,1.6s3.1,3.4,3.4,4.9c0.3,1.5,1.7,1.1,3.7,1.2c2,0.1,6.1,0.4,6.7,0.6c0.6,0.3,1.7,1.6,0.2,5.1
	c-1.5,3.5-4,7.9-4,7.9s7.8,4,11.9-0.8c4.1-4.8,2.7-5.3,4.5-6c1.8-0.6,6.3,2,7.9,0.6c1.6-1.4,1.8-1.7-1-4c-2.7-2.2-5.2-2.8-4-5.4
	c1.2-2.6,4.1-2.3,6-8.2c1.9-6,0.7-12,1.8-14.4c1.1-2.4,1.9-4.1,1.9-4.1s-0.4-0.4-2,1.5c-1.5,2-1.5,2-1.5,2l1.6-4.5
	c0,0-1.3,1.1-2.4,3c-1.1,1.9-0.2-2.4-0.2-2.4s-2.8,2-3.8,4.2c-0.9,2.2-1.2,3.2-0.9,2.2c0.3-1-0.3-3,0.7-5c0.9-2,0.9-2,0.9-2
	s-3.2,1.3-3.8,4.2c-0.5,2.9-1.8-0.2-1.6-0.9c0.2-0.6-1.2,0.5-1,2.9c0.2,2.4,0.2,6.4-0.8,7.1c-1,0.7-4.7,2.9-5.2,7
	C660.3,38.9,659.6,40.9,658.6,41.2z"/>
<g>
	<g>
		<path fill-rule="evenodd" clip-rule="evenodd" fill="#C6AC40" d="M438.8,56.2c0,0,3.4-1.2,3.5-3.4c0.1-2.3,0.2-4.8,0.2-4.8
			s-17.4,6.2-54.2,2.9c-36.6-3.3-93.7-8.6-119.7-14.5c-25.7-5.9-62.3-15.1-79.7-24.2C171.4,3,168,1.2,168,1.2s-0.2,6.1,3.7,9.6
			c3.9,3.5,3.9,3.5,3.9,3.5s-4.7,17.4-4.6,18c0.2,0.6,35.8,14.3,35.8,14.3L211,59l48.2,7.3l0.5,6.9l3.8,0.3c0,0-0.5,4.1-0.5,5
			c0,0.9-9.7,5.7-9.7,5.7l-45.9-4.2l0,2.2l3.9,1.3l0.3,14.4l51.3,2.7c0,0,1,10.6-1.8,25.1c-2.8,14.5-2.5,24.5-3.6,24.3
			c-1.1-0.1-17.9,1.3-17.9,0.7c0-0.6-2-10.9-2-10.9s6.8,0.9,6.9,0.1c0.2-0.7,1.4-4.9,1.4-4.9l5.3-2.3l-16.7-4l-20.2,4l6.6,2.5
			l0.8,4.6l4.9,1.2l-0.5,4.9l-1.6,1.3l0.2,1.2l1.8,0.4c0,0-0.7,0.6-0.5,1.6c0.2,1-2,1.2-2,1.2l0.3,2.1l1.8-0.5L221.6,256h14.2
			l2.4-51.6l14.6-0.7L253,256l24.8,0.3l-0.8-52.2h11.8L290,256h20l-3.9-62.3l0.1-34.1l2.5-1l0.7-9.6l-2.7-5l-0.3-9.1l4.6-0.3
			l-0.3-4.3l6-0.5l0-1.2c0,0-3.9-0.3-10.4-2.6c-6.5-2.3-7.3-2.6-7.3-2.6s-4,1.4-10.5,3c-6.5,1.6-7.7,1.9-7.7,1.9l0,1.6l3.5,0.3
			l0.3,4.1l6.1,0.2l1.2,15.1l-12.3,0.1l-1.3-48c0,0,27.2,3.1,47,4.1c20.2,1,47.3,3.1,47.3,3.1l1.4,42.3l-12.8,1l-0.2-8.1l3.1-0.3
			l-0.2-5.2l4.5,0.1l0.1-1.1c0,0-6-0.4-9.4-1c-3.4-0.6-5.2-2.3-5.2-2.3s-4.3,1.3-7.5,1.9c-3.2,0.5-7,0.4-7,0.4l0.1,0.7l3.2,0.2
			l0.4,4.9c0,0,4.6,0.1,4.6,0.4c0,0.4-0.3,10-0.3,10s-2-0.5-2.1,0.3c-0.2,0.8-0.8,9.2,0.1,9.3c0.9,0.1,1.5-0.7,1.5,0.3
			c0,1.1,0.4,29.6,0.4,29.6s-1.4-0.4-1.5,3c-0.1,3.4-2.5,60.8-2.5,60.8H358l1.9-52.7h11.9L371,256h19.9l1.4-56.8l16.4-0.5l-0.2,57.6
			h12.1l-0.2-52.4l3.8-0.2l0-9l-2.8-5.1l-0.9-0.6l-0.1-29.7l4.7-0.1l0-8.5l-4.6-4.2l0-7.1l4-0.3l3.3-4.1l-12.3-5.3l-11.7,4.2
			l1.7,4.8l4.6,0.9l0.4,6.5l-2.4,4.8l-21.4-0.2l-0.9-41.7c0,0,32.4,2.4,32.4,1.9c0-0.5,0.6-11.8,0.6-11.8l-34.2-2.2l0.8-11.9
			l3.4,0.1l-0.8-5.3l31.4,1.9l3.2-10.1l7.6,0.1l1.2-3.5l15.2-3.1L438.8,56.2z M324.4,50.2C219.6,37,172.3,10.4,174.3,8.5
			c1.8-1.7,18.2,10.4,65.6,22.8c46.5,12.1,88.6,17.8,130,20.7c41.1,2.9,55.9,3,68.1-0.9c0,0,2.8,2.3-1,2.6
			C433,53.9,419,62.1,324.4,50.2z"/>
	</g>
</g>
<g>
	<g>
		<path fill-rule="evenodd" clip-rule="evenodd" fill="#FFD400" d="M444.8,58.2c0,0,3.4-1.2,3.5-3.4c0.1-2.3,0.2-4.8,0.2-4.8
			s-17.4,6.2-54.2,2.9c-36.6-3.3-93.7-8.6-119.7-14.5c-25.7-5.9-62.3-15.1-79.7-24.2C177.4,5,174,3.2,174,3.2s-0.2,6.1,3.7,9.6
			c3.9,3.5,3.9,3.5,3.9,3.5s-4.7,17.4-4.6,18c0.2,0.6,35.8,14.3,35.8,14.3L217,61l48.2,7.3l0.5,6.9l3.8,0.3c0,0-0.5,4.1-0.5,5
			c0,0.9-9.7,5.7-9.7,5.7l-45.9-4.2l0,2.2l3.9,1.3l0.3,14.4l51.3,2.7c0,0,1,10.6-1.8,25.1c-2.8,14.5-2.5,24.5-3.6,24.3
			c-1.1-0.1-17.9,1.3-17.9,0.7c0-0.6-2-10.9-2-10.9s6.8,0.9,6.9,0.1c0.2-0.7,1.4-4.9,1.4-4.9l5.3-2.3l-16.7-4l-20.2,4l6.6,2.5
			l0.8,4.6l4.9,1.2l-0.5,4.9l-1.6,1.3l0.2,1.2l1.8,0.4c0,0-0.7,0.6-0.5,1.6c0.2,1-2,1.2-2,1.2l0.3,2.1l1.8-0.5L227.6,256h14.2
			l2.4-49.6l14.6-0.7L259,256l24.8,0.3l-0.8-50.2h11.8L296,256h20l-3.9-60.3l0.1-34.1l2.5-1l0.7-9.6l-2.7-5l-0.3-9.1l4.6-0.3
			l-0.3-4.3l6-0.5l0-1.2c0,0-3.9-0.3-10.4-2.6c-6.5-2.3-7.3-2.6-7.3-2.6s-4,1.4-10.5,3c-6.5,1.6-7.7,1.9-7.7,1.9l0,1.6l3.5,0.3
			l0.3,4.1l6.1,0.2l1.2,15.1l-12.3,0.1l-1.3-48c0,0,27.2,3.1,47,4.1c20.2,1,47.3,3.1,47.3,3.1l1.4,42.3l-12.8,1l-0.2-8.1l3.1-0.3
			l-0.2-5.2l4.5,0.1l0.1-1.1c0,0-6-0.4-9.4-1c-3.4-0.6-5.2-2.3-5.2-2.3s-4.3,1.3-7.5,1.9c-3.2,0.5-7,0.4-7,0.4l0.1,0.7l3.2,0.2
			l0.4,4.9c0,0,4.6,0.1,4.6,0.4c0,0.4-0.3,10-0.3,10s-2-0.5-2.1,0.3c-0.2,0.8-0.8,9.2,0.1,9.3c0.9,0.1,1.5-0.7,1.5,0.3
			c0,1.1,0.4,29.6,0.4,29.6s-1.4-0.4-1.5,3c-0.1,3.4-2.5,58.8-2.5,58.8H364l1.9-50.7h11.9L377,256h19.9l1.4-54.8l16.4-0.5l-0.2,55.6
			h12.1l-0.2-50.4l3.8-0.2l0-9l-2.8-5.1l-0.9-0.6l-0.1-29.7l4.7-0.1l0-8.5l-4.6-4.2l0-7.1l4-0.3l3.3-4.1l-12.3-5.3l-11.7,4.2
			l1.7,4.8l4.6,0.9l0.4,6.5l-2.4,4.8l-21.4-0.2l-0.9-41.7c0,0,32.4,2.4,32.4,1.9c0-0.5,0.6-11.8,0.6-11.8l-34.2-2.2l0.8-11.9
			l3.4,0.1l-0.8-5.3l31.4,1.9l3.2-10.1l7.6,0.1l1.2-3.5l15.2-3.1L444.8,58.2z M330.4,52.2C225.6,39,178.3,12.4,180.3,10.5
			c1.8-1.7,18.2,10.4,65.6,22.8c46.5,12.1,88.6,17.8,130,20.7c41.1,2.9,55.9,3,68.1-0.9c0,0,2.8,2.3-1,2.6
			C439,55.9,425,64.1,330.4,52.2z"/>
	</g>
</g>
<path fill-rule="evenodd" clip-rule="evenodd" fill="#FFFFFF" d="M364.2,68.3c0,0-4.4,0.5-5.8,1.6c-1.4,1.1-4.4,1.3-11.8,1.3
	c-7.4,0-13.2-1.3-14.7-1.9c-1.6-0.6-3.9-2.7-6.9-2.2c-3,0.5-5.8,2.2-8.6,1.1c-2.8-1.1-8.1-5-8.1-5s1.7-3.1,5.5-4.4
	c3.8-1.3,9.6,1.6,11.4,1.7c1.9,0.2,3.1,1.4,5,0.3c1.9-1.1,0-7.7,2-13.8c2-6.1,9.1-9.9,9.1-9.9s-4-2.9-4-6.5s0-3.8,0-3.8
	s2,4.6,3.9,5.7c1.9,1.1-1.8-3.3-1.4-7.4c0.4-4.1,0.4-4.1,0.4-4.1s1.9,8,3.5,8.6c1.5,0.6-1.5-9.2-0.6-10.7c1-1.5,2.1,7.2,2.7,8
	s0.5-7.6,1.5-10.7c1.1-3.1,1.1-3.1,1.1-3.1s0.7,11.3,0.7,12.4c0,1.1,2.6-11.3,2.6-11.3l1.5,13.7l2.6-12.5c0,0,0.7,9.4,1.4,13.5
	c0.7,4.1,0.7,14.8-1.3,18.8c-2,4.1-3.7,8.9-3.5,11.8C352.9,62.4,364.6,62.8,364.2,68.3z"/>
</svg>
